<svg width="442" height="269" fill="none" xmlns="http://www.w3.org/2000/svg">
    <path d="M20 0C8.9543 0 0 8.95429 0 20V86.5556L26.9424 130.805C28.3785 133.163 28.3785 136.987 26.9424 139.346L0 183.595V248.372C0 259.418 8.95432 268.372 20 268.372H394C405.046 268.372 414 259.418 414 248.372V20C414 8.9543 405.046 0 394 0H20Z" fill="url(#paint0_linear_13_333)"/>

    <mask id="mask0_13_289" style="mask-type:alpha" maskUnits="userSpaceOnUse" x="0" y="0" width="413" height="269">
        <path d="M20 0C8.9543 0 0 8.95429 0 20V86.5556L26.9424 130.805C28.3785 133.163 28.3785 136.987 26.9424 139.346L0 183.595V248.372C0 259.418 8.95432 268.372 20 268.372H394C405.046 268.372 414 259.418 414 248.372V20C414 8.9543 405.046 0 394 0H20Z" fill="url(#paint0_linear_13_333)"/>
    </mask>

    <g mask="url(#mask0_13_289)">
        <rect opacity="0.06" x="361.2" y="111" width="441.517" height="441.517" rx="30" transform="rotate(45 361.2 111)" fill="white"/>
    </g>

    <defs>
        <linearGradient id="paint0_linear_13_333" x1="-53.7194" y1="-21.0171" x2="441.896" y2="53.5312" gradientUnits="userSpaceOnUse">
            <stop offset="0.0851517" stop-color="#041080"/>
            <stop offset="1" stop-color="#0926C0"/>
        </linearGradient>
        <linearGradient id="paint1_linear_13_333" x1="-53.7194" y1="-21.0171" x2="441.896" y2="53.5312" gradientUnits="userSpaceOnUse">
            <stop offset="0.0851517" stop-color="#041080"/>
            <stop offset="1" stop-color="#0926C0"/>
        </linearGradient>
    </defs>
</svg>
