<svg width="440" height="269" xmlns="http://www.w3.org/2000/svg" xmlns:svg="http://www.w3.org/2000/svg">
    <mask height="269" id="mask0_13_289" maskUnits="userSpaceOnUse" width="440" x="0" y="0">
        <path d="m209.33,0.63l-162.58,0c-11.05,0 -20,8.95 -20,20l0,228.37c0,11.05 8.95,20 20,20l373,0c11.04,0 20,-8.95 20,-20l0,-228.37c0,-11.05 -8.96,-20 -20,-20l-158.29,0l-21.06,20.78c-1.96,1.94 -5.24,2.03 -7.31,0.2l-23.76,-20.98z" fill="url(#paint0_linear_13_335)" id="svg_1"/>
        <path d="m391.35,66.2c1.54,-2.29 4.03,-2.29 5.57,0l43.47,64.82c1.54,2.29 1.54,6.01 0,8.3l-43.47,64.82c-1.54,2.3 -4.03,2.3 -5.57,0l-43.48,-64.82c-1.53,-2.29 -1.53,-6.01 0,-8.3l43.48,-64.82z" fill="url(#paint1_linear_13_335)" id="svg_2"/>
    </mask>
    <defs>
        <linearGradient id="paint0_linear_13_335" x1="-0.19" x2="1" y1="-0.08" y2="0.2">
            <stop offset="0.09" stop-color="#041080"/>
            <stop offset="1" stop-color="#0926C0"/>
        </linearGradient>
        <linearGradient id="paint1_linear_13_335" x1="-4.22" x2="0.99" y1="-0.6" y2="-0.08">
            <stop offset="0.09" stop-color="#041080"/>
            <stop offset="1" stop-color="#0926C0"/>
        </linearGradient>
    </defs>
    <g class="layer">
        <title>Layer 1</title>
        <path d="m389.35,68.2c1.54,-2.29 4.03,-2.29 5.57,0l43.47,64.82c1.54,2.29 1.54,6.01 0,8.3l-43.47,64.82c-1.54,2.3 -4.03,2.3 -5.57,0l-43.48,-64.82c-1.53,-2.29 -1.53,-6.01 0,-8.3l43.48,-64.82z" fill="url(#paint1_linear_13_335)" id="svg_4"/>
        <path d="m182.33,0.63l-162.58,0c-11.05,0 -20,8.95 -20,20l0,228.37c0,11.05 8.95,20 20,20l373,0c11.04,0 20,-8.95 20,-20l0,-228.37c0,-11.05 -8.96,-20 -20,-20l-158.29,0l-21.06,20.78c-1.96,1.94 -5.24,2.03 -7.31,0.2l-23.76,-20.98z" fill="url(#paint0_linear_13_335)" id="svg_3"/>
        <g id="svg_5" mask="url(#mask0_13_289)" transform="matrix(1 0 0 1 0 0)">
            <rect fill="white" height="441.52" id="svg_6" opacity="0.06" rx="30" transform="rotate(45 361.2 111)" width="441.52" x="361.2" y="111"/>
        </g>
    </g>
</svg>