<svg width="413" height="299"  fill="none" xmlns="http://www.w3.org/2000/svg">
    <path d="m20,0c-11.05,0 -20,8.95 -20,20l0,228.37c0,11.05 8.95,20 20,20l373,0c11.05,0 20,-8.95 20,-20l0,-228.37c0,-11.05 -8.95,-20 -20,-20l-373,0zl0,0z" fill="url(#paint0_linear_13_334)" id="svg_3"/>
    <path d="M150.208 244.803C148.217 242.891 148.26 239.835 150.304 237.979L205.538 187.839C207.583 185.982 210.855 186.029 212.846 187.941L266.927 239.883C268.918 241.796 268.875 244.851 266.831 246.707L211.597 296.848C209.552 298.704 206.28 298.658 204.288 296.745L150.208 244.803Z" fill="url(#paint1_linear_13_334)"/>

    <mask id="mask0_13_289" style="mask-type:alpha" maskUnits="userSpaceOnUse" x="0" y="0" width="413" height="300">
        <path d="m20,0c-11.05,0 -20,8.95 -20,20l0,228.37c0,11.05 8.95,20 20,20l373,0c11.05,0 20,-8.95 20,-20l0,-228.37c0,-11.05 -8.95,-20 -20,-20l-373,0zl0,0z" fill="url(#paint0_linear_13_334)" id="svg_3"/>
        <path d="M150.208 244.803C148.217 242.891 148.26 239.835 150.304 237.979L205.538 187.839C207.583 185.982 210.855 186.029 212.846 187.941L266.927 239.883C268.918 241.796 268.875 244.851 266.831 246.707L211.597 296.848C209.552 298.704 206.28 298.658 204.288 296.745L150.208 244.803Z" fill="url(#paint1_linear_13_334)"/>
    </mask>

    <g mask="url(#mask0_13_289)">
        <rect opacity="0.06" x="361.2" y="111" width="441.517" height="441.517" rx="30" transform="rotate(45 361.2 111)" fill="white"/>
    </g>

    <defs>
<linearGradient id="paint0_linear_13_334" x1="-50.2463" y1="-23.3538" x2="416.335" y2="35.7218" gradientUnits="userSpaceOnUse">
<stop offset="0.0851517" stop-color="#041080"/>
<stop offset="1" stop-color="#0926C0"/>
</linearGradient>
<linearGradient id="paint1_linear_13_334" x1="-50.2463" y1="-23.3538" x2="416.335" y2="35.7218" gradientUnits="userSpaceOnUse">
<stop offset="0.0851517" stop-color="#041080"/>
<stop offset="1" stop-color="#0926C0"/>
</linearGradient>
</defs>
</svg>
