<svg width="440" height="299" xmlns="http://www.w3.org/2000/svg" xmlns:svg="http://www.w3.org/2000/svg">

    <path d="m161.64,244.8c-1.99,-1.91 -1.95,-4.96 0.09,-6.82l55.24,-50.14c2.04,-1.86 5.31,-1.81 7.31,0.1l54.08,51.94c1.99,1.92 1.95,4.97 -0.1,6.83l-55.23,50.14c-2.05,1.85 -5.32,1.81 -7.31,-0.1l-54.08,-51.95z" fill="url(#paint0_linear_13_334)" />
    <path d="m194.82,-1.37l-172.82,0c-11.75,0 -21.26,8.95 -21.26,20l0,228.37c0,11.05 9.51,20 21.26,20l396.48,0c11.74,0 21.26,-8.95 21.26,-20l0,-228.37c0,-11.05 -9.52,-20 -21.26,-20l-168.25,0l-22.39,20.78c-2.08,1.94 -5.57,2.03 -7.77,0.2l-25.26,-20.98z" fill="url(#paint1_linear_13_334)" transform="matrix(1 0 0 1 0 0)"/>

    <mask height="299" id="mask0_13_289" maskUnits="userSpaceOnUse" width="440" x="0" y="0">
        <path d="m194.82,-1.37l-172.82,0c-11.75,0 -21.26,8.95 -21.26,20l0,228.37c0,11.05 9.51,20 21.26,20l396.48,0c11.74,0 21.26,-8.95 21.26,-20l0,-228.37c0,-11.05 -9.52,-20 -21.26,-20l-168.25,0l-22.39,20.78c-2.08,1.94 -5.57,2.03 -7.77,0.2l-25.26,-20.98z" fill="url(#paint1_linear_13_334)"  transform="matrix(1 0 0 1 0 0)"/>
        <path d="m161.64,244.8c-1.99,-1.91 -1.95,-4.96 0.09,-6.82l55.24,-50.14c2.04,-1.86 5.31,-1.81 7.31,0.1l54.08,51.94c1.99,1.92 1.95,4.97 -0.1,6.83l-55.23,50.14c-2.05,1.85 -5.32,1.81 -7.31,-0.1l-54.08,-51.95z" fill="url(#paint0_linear_13_334)" />
    </mask>

    <g mask="url(#mask0_13_289)">
        <rect opacity="0.4" x="361.2" y="111" width="441.517" height="441.517" rx="30" transform="rotate(45 361.2 111)" fill="white"/>
    </g>

    <defs>
        <linearGradient id="paint0_linear_13_334" x1="-1.66" x2="2.24" y1="-1.88" y2="-1.35">
            <stop offset="0.09" stop-color="#041080"/>
            <stop offset="1" stop-color="#0926C0"/>
        </linearGradient>
        <linearGradient id="paint1_linear_13_334" x1="-0.12" x2="1.01" y1="-0.08" y2="0.14">
            <stop offset="0.09" stop-color="#041080"/>
            <stop offset="1" stop-color="#0926C0"/>
        </linearGradient>
    </defs>



</svg>