<svg width="440" height="299" xmlns="http://www.w3.org/2000/svg" xmlns:svg="http://www.w3.org/2000/svg">
    <mask height="300" id="mask0_13_289" maskUnits="userSpaceOnUse" width="413" x="0" y="0">
        <path d="m150.21,244.8c-1.99,-1.91 -1.95,-4.96 0.09,-6.82l55.24,-50.14c2.04,-1.86 5.31,-1.81 7.31,0.1l54.08,51.94c1.99,1.92 1.95,4.97 -0.1,6.83l-55.23,50.14c-2.05,1.85 -5.32,1.81 -7.31,-0.1l-54.08,-51.95z" fill="url(#paint0_linear_13_334)" id="svg_1"/>
        <path d="m183.33,-1.37l-162.58,0c-11.05,0 -20,8.95 -20,20l0,228.37c0,11.05 8.95,20 20,20l373,0c11.04,0 20,-8.95 20,-20l0,-228.37c0,-11.05 -8.96,-20 -20,-20l-158.29,0l-21.06,20.78c-1.96,1.94 -5.24,2.03 -7.31,0.2l-23.76,-20.98z" fill="url(#paint1_linear_13_334)" id="svg_2" transform="matrix(1 0 0 1 0 0)"/>
    </mask>
    <defs>
        <linearGradient id="paint0_linear_13_334" x1="-1.66" x2="2.24" y1="-1.88" y2="-1.35">
            <stop offset="0.09" stop-color="#041080"/>
            <stop offset="1" stop-color="#0926C0"/>
        </linearGradient>
        <linearGradient id="paint1_linear_13_334" x1="-0.12" x2="1.01" y1="-0.08" y2="0.14">
            <stop offset="0.09" stop-color="#041080"/>
            <stop offset="1" stop-color="#0926C0"/>
        </linearGradient>
    </defs>
    <g class="layer">
        <title>Layer 1</title>
        <path d="m161.64,244.8c-1.99,-1.91 -1.95,-4.96 0.09,-6.82l55.24,-50.14c2.04,-1.86 5.31,-1.81 7.31,0.1l54.08,51.94c1.99,1.92 1.95,4.97 -0.1,6.83l-55.23,50.14c-2.05,1.85 -5.32,1.81 -7.31,-0.1l-54.08,-51.95z" fill="url(#paint0_linear_13_334)" id="svg_3"/>
        <path d="m194.82,-1.37l-172.82,0c-11.75,0 -21.26,8.95 -21.26,20l0,228.37c0,11.05 9.51,20 21.26,20l396.48,0c11.74,0 21.26,-8.95 21.26,-20l0,-228.37c0,-11.05 -9.52,-20 -21.26,-20l-168.25,0l-22.39,20.78c-2.08,1.94 -5.57,2.03 -7.77,0.2l-25.26,-20.98z" fill="url(#paint1_linear_13_334)" id="svg_4" transform="matrix(1 0 0 1 0 0)"/>
        <g id="svg_5" mask="url(#mask0_13_289)"/>
    </g>
</svg>