<svg width="1920" height="60" xmlns="http://www.w3.org/2000/svg" xmlns:svg="http://www.w3.org/2000/svg">
<path d="m1921,29l-233.62,19.85l-4.8,0.33l-4.8,0.33l-4.8,0.32l-4.81,0.31l-4.8,0.31l-4.8,0.3l-4.8,0.3l-4.8,0.29l-4.81,0.29l-4.8,0.28l-4.8,0.28l-4.8,0.27l-4.8,0.27l-4.81,0.26l-4.8,0.25l-4.8,0.25l-4.8,0.24l-4.8,0.23l-4.81,0.23l-4.8,0.22l-4.8,0.22l-4.8,0.21l-4.8,0.2l-4.81,0.2l-4.8,0.19l-4.8,0.18l-4.8,0.18l-4.8,0.17l-4.81,0.17l-4.8,0.16l-4.8,0.15l-4.8,0.14l-4.8,0.14l-4.81,0.13l-4.8,0.12l-4.8,0.12l-4.8,0.11l-4.8,0.1l-4.81,0.1l-4.8,0.09l-4.8,0.08l-4.8,0.07l-4.8,0.07l-4.81,0.06l-4.8,0.05l-4.8,0.05l-4.8,0.04l-4.8,0.03l-4.81,0.03l-4.8,0.02l-4.8,0.01l-4.8,0l-4.81,0l-4.8,-0.01l-4.8,-0.02l-4.8,-0.03l-4.8,-0.03l-4.81,-0.04l-4.8,-0.05l-4.8,-0.05l-4.8,-0.06l-4.8,-0.07l-4.81,-0.07l-4.8,-0.08l-4.8,-0.09l-4.8,-0.1l-4.8,-0.1l-4.81,-0.11l-4.8,-0.12l-4.8,-0.12l-4.8,-0.13l-4.8,-0.14l-4.81,-0.14l-4.8,-0.15l-4.8,-0.16l-4.8,-0.17l-4.8,-0.17l-4.81,-0.18l-4.8,-0.18l-4.8,-0.19l-4.8,-0.2l-4.8,-0.2l-4.81,-0.21l-4.8,-0.22l-4.8,-0.22l-4.8,-0.23l-4.8,-0.23l-4.81,-0.24l-4.8,-0.25l-4.8,-0.25l-4.8,-0.26l-4.8,-0.27l-4.81,-0.27l-4.8,-0.28l-4.8,-0.28l-4.8,-0.29l-4.8,-0.29l-4.81,-0.3l-4.8,-0.3l-4.8,-0.31l-4.8,-0.31l-4.8,-0.32l-4.81,-0.33l-4.8,-0.33l-461.23,-39.7l-4.81,-0.33l-4.8,-0.33l-4.8,-0.32l-4.8,-0.31l-4.8,-0.31l-4.81,-0.3l-4.8,-0.3l-4.8,-0.29l-4.8,-0.29l-4.8,-0.28l-4.81,-0.28l-4.8,-0.27l-4.8,-0.27l-4.8,-0.26l-4.8,-0.25l-4.81,-0.25l-4.8,-0.24l-4.8,-0.23l-4.8,-0.23l-4.8,-0.22l-4.81,-0.22l-4.8,-0.21l-4.8,-0.2l-4.8,-0.2l-4.8,-0.19l-4.81,-0.18l-4.8,-0.18l-4.8,-0.17l-4.8,-0.17l-4.8,-0.16l-4.81,-0.15l-4.8,-0.14l-4.8,-0.14l-4.8,-0.13l-4.8,-0.12l-4.81,-0.12l-4.8,-0.11l-4.8,-0.1l-4.8,-0.1l-4.81,-0.09l-4.8,-0.08l-4.8,-0.07l-4.8,-0.07l-4.8,-0.06l-4.81,-0.05l-4.8,-0.05l-4.8,-0.04l-4.8,-0.03l-4.8,-0.03l-4.81,-0.02l-4.8,-0.01l-4.8,0l-4.8,0l-4.8,0.01l-4.81,0.02l-4.8,0.03l-4.8,0.03l-4.8,0.04l-4.8,0.05l-4.81,0.05l-4.8,0.06l-4.8,0.07l-4.8,0.07l-4.8,0.08l-4.81,0.09l-4.8,0.1l-4.8,0.1l-4.8,0.11l-4.8,0.12l-4.81,0.12l-4.8,0.13l-4.8,0.14l-4.8,0.14l-4.8,0.15l-4.81,0.16l-4.8,0.17l-4.8,0.17l-4.8,0.18l-4.8,0.18l-4.81,0.19l-4.8,0.2l-4.8,0.2l-4.8,0.21l-4.8,0.22l-4.81,0.22l-4.8,0.23l-4.8,0.23l-4.8,0.24l-4.8,0.25l-4.81,0.25l-4.8,0.26l-4.8,0.27l-4.8,0.27l-4.8,0.28l-4.81,0.28l-4.8,0.29l-4.8,0.29l-4.8,0.3l-4.8,0.3l-4.81,0.31l-4.8,0.31l-4.8,0.32l-4.8,0.33l-4.8,0.33l-227.33,19.39l0,31.46l1921.51,0l0,-31l-0.51,0z" fill="#F2F2F4" stroke="#F2F2F4" transform="rotate(180 961 30)"/>
</svg>